<svg width="24" height="23" viewBox="0 0 24 23" fill="none" xmlns="http://www.w3.org/2000/svg">
<g clip-path="url(#clip0_0_11714)">
<path d="M21.2547 11.6429C21.0192 10.6199 20.1824 9.86519 19.1751 9.75285C16.7905 9.48647 14.3757 9.48521 11.9727 9.48647C9.56874 9.48521 7.15445 9.48647 4.76906 9.75285C3.76233 9.86544 2.92599 10.6201 2.69076 11.6429C2.35552 13.0997 2.3515 14.69 2.3515 16.19C2.3515 17.6901 2.3515 19.2801 2.68674 20.7369C2.92196 21.7597 3.75831 22.5144 4.76554 22.627C7.15043 22.8936 9.56472 22.8946 11.9685 22.8936C14.3724 22.8949 16.7862 22.8936 19.1719 22.627C20.1786 22.5144 21.0155 21.7597 21.2507 20.7369C21.5857 19.2801 21.5874 17.6901 21.5874 16.19C21.5872 14.6897 21.5897 13.0997 21.2547 11.6429ZM7.83825 12.772H6.44602V20.17H5.1528V12.772H3.78595V11.5602H7.83825V12.772ZM11.3507 20.1702H10.1875V19.4703C9.72531 20.0001 9.28653 20.2584 8.85906 20.2584C8.48436 20.2584 8.22652 20.1066 8.11017 19.7817C8.04684 19.5877 8.00763 19.2806 8.00763 18.8277V13.7549H9.16992V18.4782C9.16992 18.7506 9.16992 18.8921 9.18047 18.9303C9.20837 19.1107 9.29658 19.2022 9.45239 19.2022C9.6856 19.2022 9.92937 19.0225 10.1872 18.6579V13.7549H11.3505L11.3507 20.1702ZM15.7669 18.2447C15.7669 18.838 15.727 19.2655 15.6493 19.5374C15.494 20.0147 15.1832 20.2584 14.7208 20.2584C14.3071 20.2584 13.908 20.0287 13.5193 19.5487V20.1705H12.357V11.5602H13.5193V14.3721C13.8947 13.9099 14.2933 13.6762 14.7208 13.6762C15.1832 13.6762 15.4943 13.9197 15.6493 14.4C15.7275 14.6581 15.7669 15.0823 15.7669 15.6897V18.2447ZM20.154 17.1744H17.8291V18.3116C17.8291 18.9054 18.0234 19.2019 18.423 19.2019C18.7092 19.2019 18.8758 19.0464 18.9422 18.7358C18.953 18.6727 18.9683 18.4143 18.9683 17.9482H20.1542V18.1178C20.1542 18.4925 20.1399 18.7506 20.1293 18.8667C20.0904 19.124 19.9989 19.3575 19.8579 19.5631C19.536 20.029 19.059 20.2587 18.4519 20.2587C17.8437 20.2587 17.3808 20.0398 17.0448 19.6018C16.7983 19.2806 16.6716 18.775 16.6716 18.0932V15.8463C16.6716 15.1604 16.784 14.6588 17.031 14.3347C17.3667 13.8956 17.8294 13.677 18.4232 13.677C19.0065 13.677 19.4689 13.8956 19.7946 14.3347C20.0381 14.6588 20.1545 15.1604 20.1545 15.8463V17.1744H20.154Z" fill="#292929"/>
<path d="M18.413 14.7229C18.0245 14.7229 17.8297 15.0197 17.8297 15.6128V16.2064H18.992V15.6128C18.9917 15.0197 18.7975 14.7229 18.413 14.7229Z" fill="#292929"/>
<path d="M14.0992 14.7229C13.9077 14.7229 13.7137 14.8134 13.5194 15.0056V18.9157C13.7134 19.1102 13.9077 19.2022 14.0992 19.2022C14.4344 19.2022 14.6048 18.9157 14.6048 18.3364V15.5982C14.6048 15.0197 14.4344 14.7229 14.0992 14.7229Z" fill="#292929"/>
<path d="M14.7484 8.89514C15.1769 8.89514 15.6227 8.63479 16.0904 8.09901V8.80618H17.2652V2.32275H16.0904V7.27799C15.83 7.64591 15.5833 7.82785 15.3483 7.82785C15.191 7.82785 15.0985 7.73487 15.0729 7.55267C15.0585 7.51422 15.0585 7.37123 15.0585 7.09605V2.32275H13.8875V7.44938C13.8875 7.90726 13.9267 8.21712 13.9915 8.41339C14.1096 8.74185 14.3702 8.89514 14.7484 8.89514Z" fill="#292929"/>
<path d="M6.56948 5.28259V8.80614H7.87224V5.28259L9.43938 0.106201H8.12204L7.23317 3.5227L6.30837 0.106201H4.9375C5.21218 0.91264 5.49791 1.7231 5.77259 2.53029C6.19051 3.7436 6.45136 4.65835 6.56948 5.28259Z" fill="#292929"/>
<path d="M11.1853 8.89518C11.7739 8.89518 12.2313 8.67378 12.5557 8.23148C12.8022 7.90705 12.9204 7.39589 12.9204 6.70681V4.43652C12.9204 3.74342 12.8025 3.23679 12.5557 2.90934C12.2313 2.46578 11.7742 2.24438 11.1853 2.24438C10.5998 2.24438 10.1427 2.46578 9.81749 2.90934C9.56794 3.23679 9.44983 3.74342 9.44983 4.43652V6.70681C9.44983 7.39589 9.56794 7.90705 9.81749 8.23148C10.1424 8.67378 10.5998 8.89518 11.1853 8.89518ZM10.6247 4.20105C10.6247 3.60118 10.8066 3.30213 11.1853 3.30213C11.5641 3.30213 11.7455 3.60093 11.7455 4.20105V6.92822C11.7455 7.52808 11.5641 7.82814 11.1853 7.82814C10.8066 7.82814 10.6247 7.52808 10.6247 6.92822V4.20105Z" fill="#292929"/>
</g>
<defs>
<clipPath id="clip0_0_11714">
<rect width="22.7876" height="22.7876" fill="white" transform="translate(0.576172 0.106201)"/>
</clipPath>
</defs>
</svg>
