<svg width="24" height="23" viewBox="0 0 24 23" fill="none" xmlns="http://www.w3.org/2000/svg">
<g clip-path="url(#clip0_0_11723)">
<path d="M23.5535 6.80582C23.5001 5.59503 23.3043 4.76262 23.0238 4.04133C22.7345 3.27569 22.2893 2.59022 21.7061 2.02038C21.1362 1.44167 20.4462 0.991995 19.6895 0.707164C18.964 0.42668 18.136 0.23088 16.9252 0.177496C15.7053 0.119591 15.3181 0.106201 12.2242 0.106201C9.13038 0.106201 8.74312 0.119591 7.52781 0.172975C6.31701 0.226359 5.4846 0.422333 4.76348 0.702643C3.99767 0.991995 3.3122 1.43715 2.74236 2.02038C2.16366 2.59022 1.71415 3.28021 1.42915 4.03698C1.14866 4.76262 0.952865 5.59051 0.899481 6.8013C0.841576 8.02114 0.828186 8.40839 0.828186 11.5022C0.828186 14.5961 0.841576 14.9833 0.89496 16.1987C0.948344 17.4094 1.14432 18.2419 1.4248 18.9632C1.71415 19.7288 2.16366 20.4143 2.74236 20.9841C3.3122 21.5628 4.00219 22.0125 4.75896 22.2973C5.4846 22.5778 6.31249 22.7736 7.52346 22.827C8.7386 22.8805 9.12603 22.8938 12.2199 22.8938C15.3137 22.8938 15.701 22.8805 16.9163 22.827C18.1271 22.7736 18.9595 22.5778 19.6806 22.2973C21.2121 21.7052 22.4229 20.4944 23.0149 18.9632C23.2953 18.2375 23.4912 17.4094 23.5446 16.1987C23.598 14.9833 23.6114 14.5961 23.6114 11.5022C23.6114 8.40839 23.6069 8.02114 23.5535 6.80582ZM21.5014 16.1096C21.4524 17.2225 21.2654 17.8235 21.1096 18.2241C20.7267 19.2169 19.9388 20.0047 18.9461 20.3877C18.5455 20.5435 17.9402 20.7304 16.8316 20.7793C15.6297 20.8328 15.2692 20.846 12.2287 20.846C9.18828 20.846 8.82329 20.8328 7.62571 20.7793C6.51281 20.7304 5.91185 20.5435 5.51121 20.3877C5.01719 20.2051 4.56751 19.9157 4.20252 19.5373C3.82413 19.1678 3.53478 18.7227 3.3522 18.2286C3.19639 17.828 3.00946 17.2225 2.9606 16.1141C2.90704 14.9122 2.89382 14.5516 2.89382 11.5111C2.89382 8.47064 2.90704 8.10565 2.9606 6.90825C3.00946 5.79535 3.19639 5.19439 3.3522 4.79375C3.53478 4.29955 3.82413 3.85005 4.20704 3.48488C4.57638 3.10649 5.02154 2.81714 5.51573 2.63473C5.91637 2.47893 6.52186 2.29199 7.63023 2.24296C8.83216 2.18957 9.1928 2.17618 12.2331 2.17618C15.2781 2.17618 15.6385 2.18957 16.8361 2.24296C17.949 2.29199 18.55 2.47893 18.9506 2.63473C19.4446 2.81714 19.8943 3.10649 20.2593 3.48488C20.6377 3.85439 20.9271 4.29955 21.1096 4.79375C21.2654 5.19439 21.4524 5.7997 21.5014 6.90825C21.5548 8.11017 21.5682 8.47064 21.5682 11.5111C21.5682 14.5516 21.5548 14.9077 21.5014 16.1096Z" fill="#292929"/>
<path d="M12.2243 5.64844C8.99257 5.64844 6.37048 8.27035 6.37048 11.5023C6.37048 14.7342 8.99257 17.3561 12.2243 17.3561C15.4562 17.3561 18.0781 14.7342 18.0781 11.5023C18.0781 8.27035 15.4562 5.64844 12.2243 5.64844ZM12.2243 15.2995C10.1277 15.2995 8.42708 13.599 8.42708 11.5023C8.42708 9.4055 10.1277 7.70503 12.2243 7.70503C14.3211 7.70503 16.0215 9.4055 16.0215 11.5023C16.0215 13.599 14.3211 15.2995 12.2243 15.2995Z" fill="#292929"/>
<path d="M19.6765 5.41689C19.6765 6.17157 19.0646 6.78349 18.3098 6.78349C17.5551 6.78349 16.9432 6.17157 16.9432 5.41689C16.9432 4.66204 17.5551 4.05029 18.3098 4.05029C19.0646 4.05029 19.6765 4.66204 19.6765 5.41689Z" fill="#292929"/>
</g>
<defs>
<clipPath id="clip0_0_11723">
<rect width="22.7876" height="22.7876" fill="white" transform="translate(0.788086 0.106201)"/>
</clipPath>
</defs>
</svg>
