<svg width="23" height="23" viewBox="0 0 23 23" fill="none" xmlns="http://www.w3.org/2000/svg">
<g clip-path="url(#clip0_0_11727)">
<path fill-rule="evenodd" clip-rule="evenodd" d="M18.9503 3.91176C16.9517 1.91077 14.2936 0.808302 11.4619 0.807129C5.62688 0.807129 0.878009 5.55587 0.875662 11.3925C0.87488 13.2582 1.36228 15.0796 2.28872 16.6849L0.786865 22.1705L6.3988 20.6984C7.94512 21.5419 9.68598 21.9864 11.4576 21.9869H11.462C17.2964 21.9869 22.0458 17.2378 22.048 11.4009C22.0492 8.57222 20.9491 5.91262 18.9503 3.91176ZM11.4619 20.1991H11.4583C9.87948 20.1985 8.33108 19.7742 6.97996 18.9727L6.6588 18.7819L3.32859 19.6555L4.21747 16.4086L4.0082 16.0758C3.1274 14.6748 2.66229 13.0556 2.66307 11.3931C2.6649 6.54189 6.61212 2.59506 11.4654 2.59506C13.8156 2.59584 16.0248 3.51224 17.686 5.17539C19.3472 6.83853 20.2615 9.0492 20.2608 11.4003C20.2587 16.2519 16.3117 20.1991 11.4619 20.1991ZM16.2882 13.6093C16.0238 13.4768 14.7233 12.8371 14.4807 12.7487C14.2385 12.6604 14.0619 12.6165 13.8858 12.8812C13.7093 13.1458 13.2025 13.7417 13.0481 13.9182C12.8937 14.0947 12.7396 14.1169 12.4751 13.9844C12.2105 13.852 11.3583 13.5726 10.3478 12.6715C9.56158 11.9701 9.03076 11.1039 8.87637 10.8392C8.72225 10.5743 8.87507 10.4449 8.99242 10.2994C9.27876 9.94381 9.56549 9.57102 9.65364 9.3946C9.74191 9.21805 9.69771 9.06354 9.63147 8.93119C9.56549 8.79884 9.0365 7.49688 8.81613 6.9671C8.60125 6.45153 8.38336 6.52116 8.22089 6.51308C8.06677 6.50538 7.89035 6.50382 7.71393 6.50382C7.53764 6.50382 7.25104 6.56993 7.00851 6.83488C6.76611 7.09971 6.08286 7.73954 6.08286 9.0415C6.08286 10.3435 7.03068 11.6012 7.1629 11.7778C7.29511 11.9543 9.02815 14.6261 11.6815 15.7717C12.3126 16.0445 12.8052 16.2071 13.1895 16.329C13.8232 16.5303 14.3996 16.5019 14.8555 16.4338C15.3638 16.3578 16.4203 15.7938 16.6409 15.176C16.8613 14.5581 16.8613 14.0286 16.7951 13.9182C16.7291 13.8078 16.5527 13.7417 16.2882 13.6093Z" fill="#292929"/>
</g>
<defs>
<clipPath id="clip0_0_11727">
<rect width="22.7876" height="22.7876" fill="white" transform="translate(0 0.106201)"/>
</clipPath>
</defs>
</svg>
