<svg width="23" height="23" viewBox="0 0 23 23" fill="none" xmlns="http://www.w3.org/2000/svg">
<g clip-path="url(#clip0_0_11309)">
<path d="M7.78613 17.3628C6.52378 17.3628 5.50049 18.3835 5.50049 19.6425C5.50049 20.9016 6.52382 21.9222 7.78613 21.9222C9.04848 21.9222 10.0718 20.9015 10.0718 19.6425C10.0718 18.3835 9.04848 17.3628 7.78613 17.3628ZM7.78613 20.9091C7.08483 20.9091 6.51634 20.342 6.51634 19.6426C6.51634 18.9431 7.08483 18.3761 7.78613 18.3761C8.48742 18.3761 9.05592 18.9431 9.05592 19.6426C9.05596 20.342 8.48742 20.9091 7.78613 20.9091Z" fill="white"/>
<path d="M17.4365 17.3628C16.1742 17.3628 15.1509 18.3835 15.1509 19.6425C15.1509 20.9016 16.1742 21.9222 17.4365 21.9222C18.6988 21.9222 19.7222 20.9015 19.7222 19.6425C19.7222 18.3835 18.6989 17.3628 17.4365 17.3628ZM17.4365 20.9091C16.7352 20.9091 16.1667 20.342 16.1667 19.6426C16.1667 18.9431 16.7352 18.3761 17.4365 18.3761C18.1378 18.3761 18.7063 18.9431 18.7063 19.6426C18.7064 20.342 18.1378 20.9091 17.4365 20.9091Z" fill="white"/>
<path d="M22.5922 4.06472C22.4864 3.94948 22.3417 3.87733 22.1859 3.86206L5.65293 3.63409L5.19581 2.2409C4.87377 1.30957 3.99937 0.680834 3.01171 0.67041H1.31017C1.02964 0.67041 0.802246 0.897218 0.802246 1.17702C0.802246 1.45682 1.02964 1.68363 1.31017 1.68363H3.01171C3.56397 1.6958 4.05026 2.04949 4.23075 2.57021L7.45607 12.2717L7.20213 12.8543C6.91888 13.5828 7.00395 14.4028 7.4307 15.0581C7.85336 15.7016 8.56443 16.0988 9.33543 16.122H19.2146C19.4951 16.122 19.7225 15.8951 19.7225 15.6153C19.7225 15.3355 19.4951 15.1087 19.2146 15.1087H9.33538C8.89998 15.0979 8.49919 14.8694 8.26873 14.5008C8.04085 14.1367 7.99404 13.6881 8.14176 13.2849L8.34495 12.829L19.0368 11.7144C20.2112 11.5854 21.1772 10.7334 21.4494 9.58666L22.6685 4.49526C22.7234 4.34865 22.6942 4.18375 22.5922 4.06472ZM20.4589 9.35873C20.2941 10.097 19.6657 10.6415 18.9098 10.7013L8.34495 11.7904L5.98309 4.64731L21.551 4.87528L20.4589 9.35873Z" fill="white"/>
</g>
<defs>
<clipPath id="clip0_0_11309">
<rect width="21.8935" height="21.8367" fill="white" transform="translate(0.802246 0.37793)"/>
</clipPath>
</defs>
</svg>
