<svg width="19" height="19" viewBox="0 0 19 19" fill="none" xmlns="http://www.w3.org/2000/svg">
<g clip-path="url(#clip0_0_9912)">
<path d="M18.4566 2.59753C18.1771 2.31754 17.7236 2.31706 17.4441 2.59634L8.85356 11.1642L5.75411 7.79793C5.48629 7.50721 5.03348 7.48836 4.74228 7.75614C4.45131 8.02396 4.43268 8.47699 4.7005 8.76797L8.30478 12.6823C8.43678 12.8258 8.62151 12.9091 8.8163 12.9131C8.82153 12.9133 8.82658 12.9133 8.83159 12.9133C9.02088 12.9133 9.20298 12.8382 9.33713 12.7045L18.4552 3.61028C18.7354 3.33103 18.7359 2.87752 18.4566 2.59753Z" fill="url(#paint0_linear_0_9912)"/>
<path d="M18.2839 8.7839C17.8884 8.7839 17.5678 9.10445 17.5678 9.5C17.5678 13.9488 13.9488 17.5678 9.5 17.5678C5.05148 17.5678 1.43216 13.9488 1.43216 9.5C1.43216 5.05148 5.05148 1.43216 9.5 1.43216C9.89551 1.43216 10.2161 1.11161 10.2161 0.7161C10.2161 0.320551 9.89551 0 9.5 0C4.26164 0 0 4.26164 0 9.5C0 14.7381 4.26164 19 9.5 19C14.7381 19 19 14.7381 19 9.5C19 9.10449 18.6794 8.7839 18.2839 8.7839Z" fill="url(#paint1_linear_0_9912)"/>
</g>
<defs>
<linearGradient id="paint0_linear_0_9912" x1="11.5885" y1="2.38721" x2="11.5885" y2="12.9133" gradientUnits="userSpaceOnUse">
<stop stop-color="#FFABAA"/>
<stop offset="1" stop-color="#FFA2A0"/>
</linearGradient>
<linearGradient id="paint1_linear_0_9912" x1="9.5" y1="0" x2="9.5" y2="19" gradientUnits="userSpaceOnUse">
<stop stop-color="#FFABAA"/>
<stop offset="1" stop-color="#FFA2A0"/>
</linearGradient>
<clipPath id="clip0_0_9912">
<rect width="19" height="19" fill="white"/>
</clipPath>
</defs>
</svg>
