<svg width="52" height="52" viewBox="0 0 52 52" fill="none" xmlns="http://www.w3.org/2000/svg">
<circle cx="26" cy="25.9998" r="26" fill="#FFABAA"/>
<path fill-rule="evenodd" clip-rule="evenodd" d="M12.5554 15.9998H12.3958C12.0768 16.2789 11 16.6777 11 17.1962V17.276C11 17.4754 12.3958 19.1504 12.4756 19.1504C12.6351 19.1504 14.0709 17.3956 14.0709 16.9968L12.5554 15.9998Z" fill="white"/>
<path fill-rule="evenodd" clip-rule="evenodd" d="M26.9526 15.9998H26.833L25.1978 17.0765L25.2377 17.1164C25.3972 17.3158 26.7532 19.1504 26.833 19.1504C27.0324 19.1504 28.4282 17.3158 28.4282 17.1962V17.1164C28.4282 16.8771 27.152 16.1992 26.9526 15.9998Z" fill="white"/>
<path fill-rule="evenodd" clip-rule="evenodd" d="M40.3528 15.9998H40.1933C39.954 16.1992 38.7177 16.8771 38.7177 17.1164V17.1962C38.7177 17.3557 40.1933 19.1504 40.273 19.1504C40.4325 19.1504 41.8683 17.3158 41.8683 17.1962V17.1164C41.8683 16.8771 40.5921 16.1593 40.3528 15.9998Z" fill="white"/>
<path fill-rule="evenodd" clip-rule="evenodd" d="M24.2407 25.4115C24.2407 25.4514 24.8389 26.1692 24.9586 26.1692C25.3574 26.1692 26.155 23.6168 26.5538 23.2978C26.9925 23.6168 29.4651 29.2401 29.7842 29.2401C30.3425 29.2401 35.208 25.5311 35.8063 25.4913L31.858 35.0627C31.5788 35.0627 30.2628 34.9431 30.2628 35.2223C30.2628 35.4217 30.3026 35.4217 30.3425 35.5812H36.0854C36.1253 35.5014 36.1652 35.3818 36.1652 35.3818C36.1652 35.2223 36.1253 35.302 36.0854 35.1026H34.6896C34.211 35.1026 35.0086 33.5871 35.1283 33.308C35.3676 32.6699 35.6068 32.0318 35.8461 31.3937C36.3646 30.1175 36.8432 28.8812 37.3616 27.605C37.8801 26.3288 38.3587 25.0526 38.8771 23.8162C39.3158 22.6996 40.1134 21.0246 40.3527 19.9079C39.595 19.9876 31.18 26.249 30.7015 26.249C30.5419 26.249 29.1062 23.4573 28.9068 23.0984C28.5878 22.54 27.2318 20.2668 27.152 19.8281H26.8729C26.5937 20.7454 24.2407 25.0526 24.2407 25.4115Z" fill="white"/>
<path fill-rule="evenodd" clip-rule="evenodd" d="M18.4181 34.9431C18.4181 35.0229 18.3383 35.1026 18.2187 35.1026H16.9425C16.9026 35.302 16.8627 35.2223 16.8627 35.3818C16.8627 35.4616 17.0223 35.5812 17.1419 35.5812H22.5259C22.6455 35.5812 22.7253 35.5413 22.7253 35.4217C22.7253 35.2223 22.6854 35.2223 22.6455 35.0627H21.0901C20.6515 35.0627 18.8169 30.3169 18.4979 29.599C18.1788 28.921 16.1449 24.3347 16.105 23.9359C18.3383 25.1323 20.5318 26.3288 22.486 27.8442C23.9217 29.0008 26.7932 31.4734 26.7932 33.8663V34.1455C26.7932 34.8633 26.2348 35.2621 25.517 35.2621C24.6396 35.2621 23.9217 34.9032 23.2836 34.8235C23.3235 35.4616 24.9586 36.0199 25.7961 36.0199H26.2747C27.7902 36.0199 28.9866 34.7836 28.9866 33.2282C28.9866 29.599 24.5997 26.5282 22.3663 24.8532C21.2098 23.9758 18.9764 22.6996 17.5806 22.1014C16.7431 21.7823 12.9145 19.8281 12.3163 19.8281C12.3163 20.1073 14.9883 26.6478 15.3074 27.3657C15.7461 28.0437 18.4181 34.6639 18.4181 34.9431Z" fill="white"/>
</svg>
