<svg width="51" height="33" viewBox="0 0 51 33" fill="none" xmlns="http://www.w3.org/2000/svg">
<path fill-rule="evenodd" clip-rule="evenodd" d="M2.55072 0H2.2891C1.76588 0.45782 0 1.11185 0 1.96209V2.09289C0 2.41991 2.28911 5.16683 2.41991 5.16683C2.68153 5.16683 5.03603 2.2891 5.03603 1.63507L2.55072 0Z" fill="#FFA9A8"/>
<path fill-rule="evenodd" clip-rule="evenodd" d="M26.1609 0H25.9647L23.2832 1.76588L23.3486 1.83128C23.6102 2.1583 25.8339 5.16683 25.9647 5.16683C26.2917 5.16683 28.5808 2.1583 28.5808 1.96209V1.83128C28.5808 1.43886 26.4879 0.327014 26.1609 0Z" fill="#FFA9A8"/>
<path fill-rule="evenodd" clip-rule="evenodd" d="M48.1386 0H47.8769C47.4845 0.327014 45.457 1.43886 45.457 1.83128V1.96209C45.457 2.2237 47.8769 5.16683 48.0078 5.16683C48.2694 5.16683 50.6239 2.1583 50.6239 1.96209V1.83128C50.6239 1.43886 48.531 0.261612 48.1386 0Z" fill="#FFA9A8"/>
<path fill-rule="evenodd" clip-rule="evenodd" d="M21.7148 15.4345C21.7148 15.4999 22.6959 16.6771 22.8921 16.6771C23.5461 16.6771 24.8542 12.4914 25.5082 11.9681C26.2276 12.4914 30.2826 21.7132 30.8058 21.7132C31.7215 21.7132 39.7006 15.6307 40.6817 15.5653L34.2068 31.262C33.749 31.262 31.5907 31.0658 31.5907 31.5236C31.5907 31.8506 31.6561 31.8506 31.7215 32.1122H41.1395C41.2049 31.9814 41.2703 31.7852 41.2703 31.7852C41.2703 31.5236 41.2049 31.6544 41.1395 31.3274H38.8504C38.0656 31.3274 39.3736 28.8421 39.5698 28.3843C39.9622 27.3378 40.3547 26.2914 40.7471 25.2449C41.5973 23.152 42.3822 21.1245 43.2324 19.0316C44.0826 16.9387 44.8675 14.8459 45.7177 12.8184C46.4371 10.9871 47.7452 8.24016 48.1376 6.40888C46.895 6.53969 33.0949 16.8079 32.3101 16.8079C32.0485 16.8079 29.694 12.2297 29.367 11.6411C28.8438 10.7255 26.6201 6.99751 26.4892 6.27808H26.0314C25.5736 7.78234 21.7148 14.8459 21.7148 15.4345Z" fill="#FFA9A8"/>
<path fill-rule="evenodd" clip-rule="evenodd" d="M12.1658 31.0658C12.1658 31.1966 12.035 31.3274 11.8388 31.3274H9.74592C9.68052 31.6544 9.61512 31.5236 9.61512 31.7852C9.61512 31.916 9.87672 32.1122 10.0729 32.1122H18.9023C19.0985 32.1122 19.2293 32.0468 19.2293 31.8506C19.2293 31.5236 19.1639 31.5236 19.0985 31.262H16.5478C15.8284 31.262 12.8199 23.479 12.2966 22.3018C11.7734 21.1899 8.43786 13.6686 8.37245 13.0146C12.035 14.9767 15.6322 16.9387 18.8369 19.4241C21.1914 21.3207 25.9004 25.3757 25.9004 29.2999V29.7577C25.9004 30.935 24.9848 31.589 23.8075 31.589C22.3687 31.589 21.1914 31.0004 20.145 30.8696C20.2104 31.916 22.8919 32.8316 24.2654 32.8316H25.0502C27.5355 32.8316 29.4976 30.8042 29.4976 28.2534C29.4976 22.3018 22.3033 17.2658 18.6407 14.5188C16.744 13.08 13.0815 10.9871 10.7924 10.006C9.4189 9.48282 3.14022 6.27808 2.15918 6.27808C2.15918 6.7359 6.54117 17.462 7.0644 18.6392C7.78383 19.7511 12.1658 30.608 12.1658 31.0658Z" fill="#FFA9A8"/>
</svg>
