<svg width="35" height="35" viewBox="0 0 35 35" fill="none" xmlns="http://www.w3.org/2000/svg">
<g clip-path="url(#clip0_0_9729)">
<path d="M34.8646 9.54327L29.0313 2.54337C28.9205 2.41096 28.7566 2.33398 28.5833 2.33398H6.41693C6.24371 2.33398 6.07979 2.41041 5.96891 2.54337L0.135681 9.54327C-0.00958103 9.71711 -0.0410943 9.95916 0.0551544 10.1639C0.151403 10.3686 0.357299 10.4999 0.583633 10.4999H34.4165C34.6428 10.4999 34.8487 10.3686 34.945 10.1639C35.0407 9.95978 35.0098 9.71765 34.8646 9.54327ZM1.82912 9.33327L6.68996 3.50004H28.3097L33.1706 9.33327H1.82912Z" fill="#292929"/>
<path d="M18.0397 2.6934C17.9493 2.47527 17.7364 2.3335 17.5007 2.3335H6.41756C6.20873 2.3335 6.01623 2.44492 5.91185 2.62634C5.80746 2.80777 5.80801 3.03 5.91362 3.21081L9.99688 10.2107C10.0879 10.3664 10.246 10.472 10.4256 10.4954C10.4507 10.4983 10.4758 10.5 10.5003 10.5C10.6543 10.5 10.803 10.4394 10.9133 10.3291L17.9132 3.3292C18.08 3.16241 18.1302 2.91153 18.0397 2.6934ZM10.6228 8.96939L7.43255 3.50017H16.092L10.6228 8.96939Z" fill="#292929"/>
<path d="M34.9385 9.65792C34.8404 9.45899 34.6375 9.33301 34.4158 9.33301H0.582936C0.361249 9.33301 0.15884 9.45899 0.060267 9.65792C-0.037759 9.85684 -0.0149956 10.0942 0.119739 10.2704L17.0362 32.4368C17.1465 32.5814 17.318 32.6666 17.4999 32.6666C17.6819 32.6666 17.8534 32.5814 17.9625 32.4368L34.879 10.2704C35.0137 10.0942 35.0364 9.85684 34.9385 9.65792ZM17.4999 31.122L1.76239 10.5003H33.2375L17.4999 31.122Z" fill="#292929"/>
<path d="M18.0564 31.9072L11.0565 9.74077C10.9795 9.49809 10.7549 9.33301 10.5 9.33301H0.583424C0.361738 9.33301 0.159328 9.45899 0.0607553 9.65792C-0.0372707 9.85684 -0.0145073 10.0942 0.120227 10.2704L17.0367 32.4368C17.1498 32.5855 17.3231 32.6666 17.5004 32.6666C17.5914 32.6666 17.6836 32.6456 17.7687 32.6001C18.0202 32.4701 18.1415 32.1772 18.0564 31.9072ZM1.76233 10.5003H10.0724L15.9383 29.0757L1.76233 10.5003Z" fill="#292929"/>
<path d="M29.0889 2.62634C28.9851 2.44492 28.792 2.3335 28.5832 2.3335H17.5C17.2643 2.3335 17.0514 2.47527 16.961 2.6934C16.8705 2.91153 16.9207 3.16241 17.0876 3.3292L24.0875 10.3291C24.1971 10.4394 24.3459 10.5 24.4999 10.5C24.525 10.5 24.55 10.4982 24.5751 10.4954C24.7542 10.472 24.9129 10.367 25.0039 10.2107L29.0871 3.21081C29.1921 3.03 29.1927 2.80777 29.0889 2.62634ZM24.3774 8.96939L18.9081 3.50017H27.5675L24.3774 8.96939Z" fill="#292929"/>
<path d="M34.9397 9.65889C34.8417 9.45997 34.6387 9.33398 34.417 9.33398H24.5005C24.2456 9.33398 24.0204 9.49907 23.944 9.74174L16.9441 31.9081C16.8589 32.1776 16.9802 32.4704 17.2316 32.6011C17.3168 32.6454 17.409 32.6665 17.4999 32.6665C17.6767 32.6665 17.8499 32.5854 17.9637 32.4378L34.8801 10.2715C35.0149 10.0952 35.0376 9.85775 34.9397 9.65889ZM19.0616 29.0754L24.9275 10.5H33.2376L19.0616 29.0754Z" fill="#292929"/>
</g>
<defs>
<clipPath id="clip0_0_9729">
<rect width="35" height="35" fill="white"/>
</clipPath>
</defs>
</svg>
