<svg width="135" height="135" viewBox="0 0 135 135" fill="none" xmlns="http://www.w3.org/2000/svg">
<path d="M0 67.5L7.47321 62.1964L0.964286 55.808L9.28125 51.9509L4.09821 44.3571L12.8973 42.067L9.04018 33.75L18.0804 32.9062L15.7902 24.1071L24.8304 24.8304L24.1071 15.7902L32.9062 18.0804L33.75 9.04018L42.067 12.8973L44.3571 4.09821L51.9509 9.28125L55.808 0.964286L62.1964 7.47321L67.5 0L72.8036 7.47321L79.192 0.964286L83.0491 9.28125L90.6429 4.09821L92.933 12.8973L101.25 9.04018L102.094 18.0804L110.893 15.7902L110.17 24.8304L119.21 24.1071L116.92 32.9062L125.96 33.75L122.103 42.067L130.902 44.3571L125.719 51.9509L134.036 55.808L127.527 62.1964L135 67.5L127.527 72.8036L134.036 79.192L125.719 83.0491L130.902 90.6429L122.103 92.933L125.96 101.25L116.92 102.094L119.21 110.893L110.17 110.17L110.893 119.21L102.094 116.92L101.25 125.96L92.933 122.103L90.6429 130.902L83.0491 125.719L79.192 134.036L72.8036 127.527L67.5 135L62.1964 127.527L55.808 134.036L51.9509 125.719L44.3571 130.902L42.067 122.103L33.75 125.96L32.9062 116.92L24.1071 119.21L24.8304 110.17L15.7902 110.893L18.0804 102.094L9.04018 101.25L12.8973 92.933L4.09821 90.6429L9.28125 83.0491L0.964286 79.192L7.47321 72.8036L0 67.5Z" fill="url(#paint0_linear_0_2019)"/>
<defs>
<linearGradient id="paint0_linear_0_2019" x1="67.5" y1="0" x2="67.5" y2="135" gradientUnits="userSpaceOnUse">
<stop offset="0.692453" stop-color="#FFEBED"/>
<stop offset="1" stop-color="#FFDDE0"/>
</linearGradient>
</defs>
</svg>
