<svg width="42" height="42" viewBox="0 0 42 42" fill="none" xmlns="http://www.w3.org/2000/svg">
<path d="M37.5913 15.2591C36.8399 14.32 35.7197 13.7812 34.5168 13.7812H30.1875V11.1562C30.1875 10.4324 29.5988 9.84375 28.875 9.84375H6.5625C5.83866 9.84375 5.25 10.4324 5.25 11.1562V13.7812H1.96875C1.6065 13.7812 1.3125 14.0753 1.3125 14.4375C1.3125 14.7997 1.6065 15.0938 1.96875 15.0938H5.25V22.9688H1.3125C0.95025 22.9688 0.65625 23.2627 0.65625 23.625C0.65625 23.9873 0.95025 24.2812 1.3125 24.2812H5.25V28.2188C5.25 28.9426 5.83866 29.5312 6.5625 29.5312H8.59753C8.90269 31.0268 10.2277 32.1562 11.8125 32.1562C13.3973 32.1562 14.7223 31.0268 15.0275 29.5312H32.2225C32.5277 31.0268 33.8527 32.1562 35.4375 32.1562C37.0223 32.1562 38.3473 31.0268 38.6525 29.5312H40.0312C41.1167 29.5312 42 28.6479 42 27.5625V22.1511C42 21.2605 41.6935 20.3871 41.137 19.6914L37.5913 15.2591ZM11.8125 30.8438C10.7271 30.8438 9.84375 29.9604 9.84375 28.875C9.84375 27.7896 10.7271 26.9062 11.8125 26.9062C12.8979 26.9062 13.7812 27.7896 13.7812 28.875C13.7812 29.9604 12.8979 30.8438 11.8125 30.8438ZM35.4375 30.8438C34.3521 30.8438 33.4688 29.9604 33.4688 28.875C33.4688 27.7896 34.3521 26.9062 35.4375 26.9062C36.5229 26.9062 37.4062 27.7896 37.4062 28.875C37.4062 29.9604 36.5229 30.8438 35.4375 30.8438ZM40.6875 27.5625C40.6875 27.9241 40.3928 28.2188 40.0312 28.2188H38.6525C38.3473 26.7232 37.0223 25.5938 35.4375 25.5938C33.8527 25.5938 32.5277 26.7232 32.2225 28.2188H30.1875V19.6875C30.1875 19.3252 29.8935 19.0312 29.5312 19.0312C29.169 19.0312 28.875 19.3252 28.875 19.6875V28.2188H15.0275C14.7223 26.7232 13.3973 25.5938 11.8125 25.5938C10.2277 25.5938 8.90269 26.7232 8.59753 28.2188H6.5625V24.2812H8.53125C8.8935 24.2812 9.1875 23.9873 9.1875 23.625C9.1875 23.2627 8.8935 22.9688 8.53125 22.9688H6.5625V15.0938H15.75C16.1123 15.0938 16.4062 14.7997 16.4062 14.4375C16.4062 14.0753 16.1123 13.7812 15.75 13.7812H6.5625V11.1562H28.875V17.7188C28.875 18.081 29.169 18.375 29.5312 18.375C29.8935 18.375 30.1875 18.081 30.1875 17.7188V15.0938H34.5168C35.3187 15.0938 36.0655 15.4527 36.5669 16.0788L40.1126 20.5111C40.4827 20.9744 40.6875 21.5572 40.6875 22.1511V27.5625Z" fill="#292929"/>
<path d="M14.4375 18.375H8.53125C8.169 18.375 7.875 18.669 7.875 19.0312C7.875 19.3935 8.169 19.6875 8.53125 19.6875H14.4375C14.7997 19.6875 15.0938 19.3935 15.0938 19.0312C15.0938 18.669 14.7997 18.375 14.4375 18.375Z" fill="#292929"/>
<path d="M0.65625 20.3438H2.625C2.98725 20.3438 3.28125 20.0497 3.28125 19.6875C3.28125 19.3252 2.98725 19.0312 2.625 19.0312H0.65625C0.294 19.0312 0 19.3252 0 19.6875C0 20.0497 0.294 20.3438 0.65625 20.3438Z" fill="#292929"/>
<path d="M35.4815 16.8781C35.2321 16.5782 34.8646 16.4062 34.4741 16.4062H32.8118C32.0887 16.4062 31.5 16.9949 31.5 17.7181V20.3444C31.5 21.0676 32.0887 21.6562 32.8118 21.6562H36.6627C37.1772 21.6562 37.6327 21.3668 37.8512 20.9009C38.0697 20.435 38.0002 19.9001 37.6707 19.5051L35.4815 16.8781ZM32.8125 20.3444L32.8118 17.7188H34.4741L36.668 20.3438L32.8125 20.3444Z" fill="#292929"/>
</svg>
