<svg width="17" height="18" viewBox="0 0 17 18" fill="none" xmlns="http://www.w3.org/2000/svg">
<path d="M16.4912 8.74326L13.0705 7.16475L14.3889 3.46982C14.4732 3.25537 14.2447 3.02686 14.0303 3.11123L10.3354 4.42959L8.75683 1.00889C8.71113 0.899902 8.60566 0.847168 8.50019 0.847168C8.39473 0.847168 8.28926 0.899902 8.24355 1.00889L6.66504 4.42959L2.97012 3.11123C2.75566 3.02686 2.52715 3.25537 2.61152 3.46982L3.92988 7.16475L0.50918 8.74326C0.291211 8.83467 0.291211 9.16514 0.50918 9.25654L3.92988 10.8351L2.61152 14.53C2.52715 14.7444 2.75566 14.9729 2.97012 14.8886L6.66504 13.5702L8.24355 16.9909C8.28926 17.0999 8.39473 17.1526 8.50019 17.1526C8.60566 17.1526 8.71113 17.0999 8.75683 16.9909L10.3354 13.5702L14.0303 14.8886C14.2447 14.9729 14.4732 14.7444 14.3889 14.53L13.0705 10.8351L16.4912 9.25654C16.7092 9.16514 16.7092 8.83467 16.4912 8.74326ZM6.59824 5.00264L7.73027 7.83271L3.95801 4.06045L6.59824 5.00264ZM3.56074 4.45772L7.33301 8.22998L4.50293 7.09795L3.56074 4.45772ZM4.28848 7.61826L7.03769 8.71865H1.90488L4.28848 7.61826ZM1.90488 9.28115H7.03769L4.28848 10.3815L1.90488 9.28115ZM4.50293 10.9019L7.33301 9.76982L3.56074 13.5421L4.50293 10.9019ZM6.59824 12.9972L3.95801 13.9394L7.73027 10.1671L6.59824 12.9972ZM8.21894 15.5952L7.11855 13.2116L8.21894 10.4624V15.5952ZM8.21894 7.54092L7.11855 4.7917L8.21894 2.40459V7.54092ZM12.4975 7.09795L9.66738 8.22998L13.4396 4.45772L12.4975 7.09795ZM10.4021 5.00264L13.0424 4.06045L9.27012 7.83271L10.4021 5.00264ZM8.78144 2.40459L9.88183 4.78818L8.78144 7.54092V2.40459ZM8.78144 15.5952V10.4624L9.88183 13.2116L8.78144 15.5952ZM10.4021 12.9972L9.27012 10.1671L13.0424 13.9394L10.4021 12.9972ZM13.4396 13.5421L9.66738 9.76982L12.4975 10.9019L13.4396 13.5421ZM12.7119 10.3815L9.95918 9.28115H15.092L12.7119 10.3815ZM9.95918 8.71865L12.7084 7.61826L15.092 8.71865H9.95918Z" fill="#292929"/>
</svg>
