<svg width="49" height="49" viewBox="0 0 49 49" fill="none" xmlns="http://www.w3.org/2000/svg">
<g clip-path="url(#clip0_2_6676)">
<path d="M40.5236 49.0003H6.33376C3.81626 49.0003 1.77539 46.959 1.77539 44.4415V10.2516C1.77539 7.73413 3.81626 5.69284 6.33376 5.69284H26.7767V7.97244H6.33376C5.07501 7.97244 4.05457 8.99288 4.05457 10.2516V44.4415C4.05457 45.7002 5.07501 46.7206 6.33376 46.7206H40.5236C41.7828 46.7206 42.8032 45.7002 42.8032 44.4415V17.9869H45.0824V44.4415C45.0824 46.959 43.0415 49.0003 40.5236 49.0003Z" fill="#292929"/>
<path d="M20.3379 30.4387L21.9497 28.8269L40.1844 47.0616L38.5726 48.673L20.3379 30.4387Z" fill="#292929"/>
<path d="M3.10742 46.0433L29.0161 20.135L30.6275 21.7465L4.71925 47.6551L3.10742 46.0433Z" fill="#292929"/>
<path d="M35.965 15.9497C33.4471 15.9497 31.4062 13.9089 31.4062 11.3914C31.4062 8.87345 33.4471 6.83258 35.965 6.83258C38.4825 6.83258 40.5234 8.87345 40.5234 11.3914C40.5234 13.9089 38.4825 15.9497 35.965 15.9497ZM35.965 9.11176C34.7063 9.11176 33.6854 10.1322 33.6854 11.3914C33.6854 12.6501 34.7063 13.6705 35.965 13.6705C37.2238 13.6705 38.2442 12.6501 38.2442 11.3914C38.2442 10.1322 37.2238 9.11176 35.965 9.11176Z" fill="#292929"/>
<path d="M14.8812 26.2066C11.2844 26.2062 8.20808 23.6219 7.58622 20.079C6.96478 16.5365 8.97811 13.0591 12.3599 11.8341C15.7418 10.6092 19.5147 11.9902 21.3064 15.1091L19.326 16.2489C18.1207 14.1613 15.6245 13.1951 13.3278 13.9267C11.0311 14.6588 9.55406 16.8912 9.7786 19.2914C10.0036 21.6917 11.8691 23.6111 14.2618 23.9036C16.6545 24.1966 18.9283 22.7835 19.725 20.5085H14.3115V18.2293H22.3748L22.2609 19.4684C21.9341 23.2951 18.7217 26.2279 14.8812 26.2066Z" fill="#292929"/>
<path d="M35.9653 37.1902L34.8827 33.7713C33.846 30.4725 32.4057 27.3147 30.5948 24.369L26.2781 17.3888C23.3249 12.6109 24.2931 6.3935 28.5598 2.73996C32.8264 -0.913158 39.1185 -0.913158 43.3851 2.73996C47.6513 6.3935 48.62 12.6109 45.6668 17.3888L41.3501 24.369C39.5392 27.3147 38.0989 30.4725 37.0621 33.7713L35.9653 37.1902ZM35.9653 2.27378C32.6578 2.27419 29.6098 4.0659 28.0009 6.95568C26.3916 9.84546 26.4738 13.38 28.2154 16.1922L32.5322 23.1725C33.8773 25.3503 35.0263 27.6432 35.9653 30.0246C36.9035 27.6386 38.0525 25.3407 39.3985 23.1583L43.7148 16.1776C45.4489 13.3667 45.527 9.83753 43.9189 6.95234C42.3108 4.06716 39.2683 2.27753 35.9653 2.27378Z" fill="#292929"/>
</g>
<defs>
<clipPath id="clip0_2_6676">
<rect width="49" height="49" fill="white"/>
</clipPath>
</defs>
</svg>
