<svg width="23" height="20" viewBox="0 0 23 20" fill="none" xmlns="http://www.w3.org/2000/svg">
<path d="M11.2295 3.16332L11.5184 3.42181L11.8073 3.16332C14.0291 1.17553 16.4647 0.928702 18.4149 1.82014C20.4945 2.77071 21.9541 4.99036 21.9541 7.57044C21.9541 10.1302 20.8924 12.0879 19.4683 13.6916C18.321 14.9834 16.9113 16.0705 15.6317 17.0558L15.6312 17.0562L15.6312 17.0562C15.6312 17.0562 15.6311 17.0563 15.6311 17.0563C15.3426 17.2784 15.0603 17.4957 14.7915 17.7076C14.2697 18.1189 13.737 18.5351 13.2038 18.8467C12.6707 19.1582 12.1064 19.3841 11.5184 19.3841C10.9304 19.3841 10.3661 19.1582 9.833 18.8467C9.29982 18.5351 8.767 18.1189 8.24535 17.7076L8.24528 17.7076C7.97664 17.4958 7.6946 17.2787 7.40631 17.0567L7.4062 17.0567L7.40562 17.0562L7.40481 17.0556C7.40479 17.0556 7.40477 17.0555 7.40475 17.0555C6.12522 16.0703 4.71569 14.9833 3.56854 13.6916C2.14441 12.0879 1.08273 10.1302 1.08273 7.57044C1.08273 4.99036 2.54228 2.77071 4.62183 1.82014C6.57202 0.9287 9.00773 1.17554 11.2295 3.16332Z" stroke="#292929" stroke-width="0.86663"/>
</svg>
