<svg width="34" height="24" viewBox="0 0 34 24" fill="none" xmlns="http://www.w3.org/2000/svg">
<path d="M31.1374 24.0019H2.55181C1.14505 24.0019 0 22.8569 0 21.4501V2.38272C0 1.06858 1.06928 0 2.38342 0H31.3051C32.6193 0 33.6878 1.06858 33.6878 2.38272V21.4508C33.6885 22.8569 32.5442 24.0019 31.1374 24.0019ZM2.38412 1.40255C1.84317 1.40255 1.40395 1.84177 1.40395 2.38202V21.4501C1.40395 22.083 1.91895 22.5987 2.55251 22.5987H31.1381C31.771 22.5987 32.286 22.0837 32.286 21.4501V2.38272C32.286 1.84177 31.8468 1.40325 31.3065 1.40325L2.38412 1.40255Z" fill="#292929"/>
<path d="M16.8447 15.1622C16.1304 15.1622 15.4183 14.9138 14.8492 14.4163L3.46888 4.45816C3.177 4.20276 3.14753 3.75934 3.40222 3.46816C3.65761 3.17488 4.10104 3.14682 4.39222 3.40151L15.7733 13.359C16.3844 13.8936 17.3056 13.8936 17.9167 13.359L29.2971 3.40151C29.5876 3.14682 30.031 3.17488 30.2871 3.46816C30.5418 3.75934 30.5123 4.20276 30.2205 4.45816L18.8401 14.4156C18.2711 14.9131 17.5575 15.1622 16.8447 15.1622Z" fill="#292929"/>
</svg>
