<svg width="23" height="23" viewBox="0 0 23 23" fill="none" xmlns="http://www.w3.org/2000/svg">
<g clip-path="url(#clip0_0_10107)">
<path d="M14.418 14.1987C14.7569 13.8573 14.7549 13.3059 14.4136 12.967C14.0721 12.6281 13.5208 12.6301 13.1818 12.9716L7.95616 18.2363L4.13057 14.3991L11.6414 6.86259L16.0621 11.2833C16.4022 11.6234 16.9536 11.6234 17.2937 11.2833L17.3308 11.2462L21.3674 7.27493C21.3691 7.27322 21.3708 7.27169 21.3725 7.26999C22.4814 6.16109 22.4321 5.03992 22.1956 4.29481C21.9578 3.54526 21.4308 2.79027 20.4871 1.84665C19.5434 0.902859 18.7884 0.376014 18.039 0.13815C17.2937 -0.0983512 16.1725 -0.147764 15.0626 0.962155L2.25628 13.8123C2.15064 13.9181 2.07414 14.0495 2.0341 14.1934L0.0758051 21.2288C-0.00853784 21.5323 0.0773386 21.8577 0.30072 22.0798C0.466168 22.2444 0.687845 22.3333 0.914975 22.3333C0.994377 22.3333 1.07429 22.3224 1.15284 22.3001L8.12434 20.3198C8.29251 20.2886 8.45319 20.208 8.58286 20.0775L14.418 14.1987ZM17.512 1.79826C18.1206 1.99148 18.7984 2.62141 19.2554 3.07823C19.7124 3.53521 20.3421 4.21302 20.5354 4.82183C20.6381 5.1454 20.6616 5.51651 20.143 6.03602L19.0017 7.15889L15.1676 3.32478L16.2956 2.19288C16.8161 1.672 17.1879 1.69551 17.512 1.79826ZM13.9379 4.5584L17.7599 8.38059L16.6825 9.44058L12.8711 5.62896L13.9379 4.5584ZM3.83903 19.7263L2.63796 18.5195L3.32344 16.0568L6.28839 19.0306L3.83903 19.7263ZM22.3352 21.4236C22.3352 21.9046 21.9453 22.2945 21.4643 22.2945H10.8824C10.4014 22.2945 10.0114 21.9046 10.0114 21.4236C10.0114 20.9426 10.4014 20.5526 10.8824 20.5526H21.4643C21.9452 20.5526 22.3352 20.9426 22.3352 21.4236Z" fill="white"/>
</g>
<defs>
<clipPath id="clip0_0_10107">
<rect width="22.3333" height="22.3333" fill="white"/>
</clipPath>
</defs>
</svg>
