<svg width="44" height="44" viewBox="0 0 44 44" fill="none" xmlns="http://www.w3.org/2000/svg">
<path d="M40.6481 28.3142C40.2782 27.6965 38.7624 25.8608 34.7913 28.1735L27.8948 32.1904C27.6106 32.3559 27.3222 32.4806 27.0242 32.5656C27.1209 32.3825 27.1993 32.1821 27.2572 31.9658C27.6201 30.6111 26.8161 29.1972 25.427 28.7468C25.3976 28.7373 25.3675 28.7297 25.337 28.7242C23.3612 28.3679 21.4082 27.6618 19.839 27.0945C19.2922 26.8969 18.7758 26.7102 18.3361 26.5676C16.5423 25.9857 14.9276 26.702 13.5847 27.4795L8.5198 30.412L8.07361 29.6236C7.85009 29.2287 7.4852 28.9442 7.04605 28.8225C6.60717 28.7008 6.14766 28.7569 5.75278 28.9803L3.8179 30.0754C3.00072 30.5379 2.71223 31.579 3.17466 32.3962L8.86346 42.4479C9.08698 42.8428 9.45188 43.1274 9.89102 43.249C10.0429 43.2912 10.1971 43.312 10.3503 43.312C10.64 43.312 10.926 43.2374 11.1843 43.0913L13.1193 41.9961C13.9365 41.5336 14.2251 40.4925 13.7626 39.6753L13.2129 38.7042L14.2906 38.0821L23.0933 40.4407C23.5874 40.5731 24.0788 40.639 24.5623 40.6389C25.5401 40.6389 26.4848 40.3696 27.3483 39.838L39.8638 32.1315C41.0378 31.4086 41.4117 29.5891 40.6481 28.3142ZM12.442 40.7994L10.5069 41.8946C10.4054 41.9521 10.3076 41.9376 10.2581 41.9241C10.2088 41.9104 10.1175 41.8722 10.0601 41.7708L4.37125 31.719C4.28368 31.5643 4.34048 31.3596 4.49509 31.2721L6.43005 30.177C6.48652 30.145 6.54195 30.1353 6.58844 30.1353C6.62548 30.1353 6.65693 30.1415 6.67884 30.1476C6.72817 30.1613 6.81944 30.1994 6.87693 30.3008L12.5658 40.3525C12.6534 40.5073 12.5966 40.7119 12.442 40.7994ZM24.2 33.8593L25.0578 33.9988C26.3584 34.2068 27.5127 34.0039 28.5867 33.3785L35.4833 29.3616C37.4281 28.2289 38.9179 28.1014 39.4685 29.0206C39.8455 29.6501 39.6811 30.6291 39.1426 30.9606L26.6272 38.6671C25.6531 39.2668 24.5839 39.4168 23.4491 39.1125L14.3712 36.6802C14.1951 36.6332 14.0075 36.6577 13.8496 36.7488L12.5356 37.5074L9.19707 31.6086L14.2736 28.6693C15.4086 28.0122 16.635 27.461 17.9118 27.8753C18.3299 28.011 18.8125 28.1854 19.3714 28.3874C20.9763 28.9677 22.9704 29.6886 25.0426 30.0681C25.722 30.3083 26.1019 30.964 25.9288 31.6098C25.7009 32.4603 24.9874 32.5656 24.4186 32.5008C23.4074 32.2925 22.445 32.018 21.4268 31.7271C20.9421 31.5888 20.441 31.4456 19.9257 31.3075C19.5591 31.2095 19.182 31.427 19.0837 31.7937C18.9854 32.1604 19.203 32.5374 19.5698 32.6357C20.0743 32.7709 20.5699 32.9124 21.0491 33.0492C22.1033 33.3503 23.099 33.6346 24.1725 33.8541M6.95436 32.0526C7.00953 32.4301 6.74828 32.7809 6.37067 32.8361C5.99315 32.8913 5.64235 32.63 5.58718 32.2524C5.53201 31.8749 5.79326 31.5241 6.17087 31.4689C6.54839 31.4137 6.89919 31.6751 6.95436 32.0526ZM17.0948 11.4258C17.4129 12.0461 17.5725 12.3574 17.6182 12.6162C17.6638 12.875 17.6202 13.2221 17.5336 13.9137C17.5118 14.0877 17.4875 14.2815 17.4614 14.4993C17.3182 15.697 17.9671 16.8208 19.0759 17.2958C19.2775 17.3821 19.4575 17.4579 19.6191 17.5261C19.6484 17.5384 19.6765 17.5503 19.7046 17.5622L17.1493 23.0505C17.0412 23.2827 17.0711 23.5556 17.2269 23.7589C17.3827 23.9622 17.6385 24.0621 17.8909 24.0179L20.6995 23.5272L22.132 25.9924C22.2554 26.2047 22.4823 26.3344 22.7264 26.3344C22.7368 26.3344 22.7473 26.3341 22.7577 26.3337C23.0135 26.3221 23.2417 26.1692 23.3498 25.9371L25.8864 20.4888L25.8363 20.4655C26.2706 20.3341 26.5269 20.268 26.737 20.268C26.9998 20.268 27.3341 20.3711 28.0001 20.5767C28.07 20.5982 28.144 20.621 28.2208 20.6446L30.0514 24.8948C30.1528 25.13 30.3764 25.2894 30.6318 25.3084C30.6489 25.3097 30.666 25.3103 30.683 25.3103C30.9195 25.3103 31.141 25.1883 31.267 24.9853L32.7704 22.5627L35.5636 23.1348C35.8145 23.1862 36.0732 23.0938 36.2347 22.8952C36.3964 22.6965 36.4342 22.4245 36.333 22.1893L34.2522 17.3582C34.2996 17.3381 34.3482 17.3173 34.3982 17.2959C35.507 16.821 36.1558 15.6971 36.0127 14.4994C35.9866 14.2817 35.9624 14.0879 35.9406 13.9139C35.8538 13.2223 35.8103 12.8752 35.8559 12.6164C35.9015 12.3576 36.0612 12.0463 36.3792 11.426C36.4592 11.27 36.5483 11.0962 36.6473 10.9005C37.1916 9.824 36.9661 8.54603 36.0867 7.7206C35.9267 7.57046 35.7836 7.43769 35.6551 7.31841C35.1441 6.84429 34.8876 6.60642 34.7562 6.37877C34.6248 6.15121 34.5469 5.81012 34.392 5.13061C34.353 4.9596 34.3096 4.76916 34.2595 4.55561C33.9844 3.3811 32.9902 2.54699 31.7858 2.48004C31.5669 2.46784 31.3719 2.45821 31.1967 2.44945C30.5005 2.41482 30.1511 2.39737 29.9041 2.30748C29.6572 2.21759 29.3783 2.00636 28.8228 1.58543C28.683 1.47956 28.5273 1.36165 28.3518 1.23017C27.3861 0.507262 26.0884 0.507262 25.1227 1.23017C24.9472 1.36165 24.7915 1.47956 24.6517 1.58543C24.0961 2.00636 23.8174 2.21759 23.5704 2.30748C23.3234 2.39737 22.9741 2.41482 22.2778 2.44945C22.1026 2.45821 21.9076 2.46784 21.6887 2.48004C20.4843 2.54707 19.4901 3.38118 19.2151 4.55561C19.165 4.76916 19.1216 4.95951 19.0825 5.13053C18.9275 5.81012 18.8497 6.15112 18.7183 6.37877C18.5869 6.60633 18.3303 6.84429 17.8194 7.31832C17.6909 7.4376 17.5477 7.57046 17.3878 7.72051C16.5082 8.54603 16.2829 9.82392 16.827 10.9005C16.9257 11.096 17.0148 11.2698 17.0948 11.4258ZM22.6592 24.1626L21.6477 22.4219C21.5031 22.173 21.2189 22.0407 20.9349 22.0901L18.9517 22.4366L20.9121 18.2261C21.0743 18.4068 21.2554 18.687 21.5542 19.1498C21.6493 19.2972 21.7553 19.4612 21.8753 19.6449C22.3854 20.4247 23.229 20.867 24.1189 20.867C24.1441 20.867 24.1695 20.8649 24.1948 20.8642L22.6592 24.1626ZM32.5768 21.1194C32.2947 21.0616 32.0065 21.1857 31.8547 21.4304L30.7932 23.141L29.7972 20.8285C30.5182 20.7075 31.1741 20.2939 31.5986 19.6449C31.7186 19.4613 31.8245 19.2973 31.9196 19.1499C32.2978 18.5644 32.4875 18.2705 32.6889 18.1015C32.7674 18.0356 32.8649 17.9746 32.9922 17.9087L34.549 21.5233L32.5768 21.1194ZM18.3284 8.72297C18.4862 8.5749 18.6274 8.44385 18.7544 8.3262C19.9747 7.19414 20.0526 7.05905 20.4229 5.43621C20.4614 5.26751 20.5042 5.07974 20.5536 4.86902C20.6904 4.28499 21.1659 3.88607 21.7648 3.85272C21.9809 3.84069 22.1732 3.83115 22.346 3.82247C24.0086 3.73971 24.1551 3.68635 25.4819 2.68114C25.6197 2.57664 25.7734 2.46028 25.9466 2.3306C26.1867 2.15082 26.4619 2.06101 26.7372 2.06101C27.0123 2.06101 27.2875 2.15082 27.5277 2.3306C27.701 2.46019 27.8545 2.57655 27.9924 2.68105C29.3192 3.68626 29.4657 3.73954 31.1282 3.82239C31.3011 3.83098 31.4934 3.84052 31.7094 3.85264C32.3084 3.88598 32.7838 4.2849 32.9206 4.86893C32.97 5.07965 33.0128 5.26751 33.0513 5.43621C33.4216 7.05896 33.4995 7.19406 34.7199 8.32611C34.8467 8.44376 34.9879 8.57482 35.1457 8.72289C35.5831 9.13341 35.6909 9.7446 35.4202 10.28C35.3226 10.4731 35.2347 10.6445 35.1558 10.7984C34.3963 12.2797 34.3692 12.4332 34.5763 14.0849C34.5978 14.2565 34.6218 14.4476 34.6475 14.6625C34.7187 15.2581 34.4084 15.7955 33.8569 16.0317C33.6581 16.1169 33.4805 16.1917 33.321 16.2589C31.7871 16.9053 31.6677 17.0055 30.7646 18.4039C30.6708 18.5492 30.5663 18.7111 30.4479 18.8921C30.1196 19.3941 29.5365 19.6064 28.9621 19.4329C28.755 19.3703 28.5709 19.3136 28.4056 19.2625C26.8152 18.7718 26.6592 18.7717 25.0684 19.2625C24.9032 19.3136 24.7191 19.3703 24.512 19.4329C23.9379 19.6064 23.3545 19.3942 23.0262 18.8921C22.9078 18.7111 22.8032 18.5492 22.7094 18.4038C21.8064 17.0055 21.687 16.9053 20.153 16.2589C19.9936 16.1917 19.8161 16.1169 19.6172 16.0317C19.0657 15.7955 18.7554 15.2581 18.8266 14.6624C18.8523 14.4475 18.8763 14.2563 18.8979 14.0847C19.105 12.4331 19.0779 12.2796 18.3183 10.7983C18.2394 10.6444 18.1515 10.473 18.0539 10.2799C17.7833 9.74468 17.891 9.13349 18.3284 8.72297ZM26.7369 17.0809C30.2129 17.0809 33.0409 14.253 33.0409 10.777C33.0409 7.30096 30.2129 4.4731 26.7369 4.4731C23.2609 4.4731 20.4331 7.30105 20.4331 10.777C20.4331 14.253 23.261 17.0809 26.7369 17.0809ZM26.7369 5.84802C29.4547 5.84802 31.6659 8.0591 31.6659 10.7769C31.6659 13.4947 29.4548 15.7058 26.7369 15.7058C24.0191 15.7058 21.8081 13.4947 21.8081 10.7769C21.8081 8.05902 24.0191 5.84802 26.7369 5.84802ZM24.9868 13.2131L23.2175 11.4438C22.949 11.1753 22.949 10.74 23.2175 10.4715C23.4861 10.203 23.9214 10.2031 24.1897 10.4715L25.4959 11.7778L29.3082 8.31795C29.5894 8.06271 30.0242 8.08385 30.2794 8.36504C30.5346 8.64623 30.5135 9.08107 30.2323 9.33622L25.9349 13.2362C25.8035 13.3553 25.6381 13.4146 25.473 13.4146C25.2967 13.4145 25.1207 13.347 24.9868 13.2131Z" fill="#292929"/>
</svg>
