<svg width="41" height="41" viewBox="0 0 41 41" fill="none" xmlns="http://www.w3.org/2000/svg">
<path d="M20.5225 18.5986C19.7676 18.5986 19.1558 19.2105 19.1558 19.9653C19.1557 20.5111 19.4764 20.9807 19.9388 21.1998V22.8612C19.9388 23.1834 20.2001 23.4447 20.5224 23.4447C20.8447 23.4447 21.1059 23.1835 21.1059 22.8612V21.1998C21.5684 20.9807 21.8891 20.5111 21.8891 19.9653C21.8891 19.2105 21.2773 18.5986 20.5225 18.5986Z" fill="#292929"/>
<path d="M35.0852 8.90068C32.5732 7.90667 30.5794 6.07593 29.4711 3.74581C29.1697 3.11216 28.5181 2.70264 27.8111 2.70264H13.1887C12.4818 2.70264 11.8303 3.11208 11.5289 3.74581C10.4206 6.07593 8.4267 7.90667 5.91473 8.90068C5.21013 9.17944 4.75488 9.85113 4.75488 10.6118V14.1682C4.75488 18.8303 6.11437 23.4357 8.6864 27.4867C11.2834 31.5773 15.0466 34.9959 19.5689 37.3728L19.6425 37.4115C19.911 37.5526 20.2055 37.6232 20.5 37.6232C20.7944 37.6232 21.0889 37.5526 21.3572 37.4116L21.4312 37.3728C25.9535 34.9958 29.7166 31.5773 32.3137 27.4867C34.8856 23.4356 36.2451 18.8302 36.2451 14.1682V10.6118C36.2451 9.85105 35.7897 9.17944 35.0852 8.90068ZM35.0781 14.1683C35.0781 18.6084 33.7815 22.9975 31.3285 26.8612C28.8405 30.78 25.2303 34.0576 20.8884 36.3399L20.8145 36.3786C20.6176 36.4822 20.3824 36.4822 20.1855 36.3786L20.1118 36.3399C15.7697 34.0577 12.1595 30.78 9.67144 26.8612C7.21841 22.9976 5.92178 18.6084 5.92178 14.1682V10.6118C5.92178 10.333 6.08754 10.0873 6.34403 9.98582C9.13155 8.88283 11.3471 6.84476 12.5826 4.2471C12.6916 4.01784 12.9295 3.8697 13.1886 3.8697H27.8112C28.0704 3.8697 28.3082 4.01784 28.4172 4.2471C29.6529 6.84476 31.8685 8.88283 34.6559 9.9859C34.9124 10.0874 35.0781 10.3331 35.0781 10.6119V14.1683Z" fill="#292929"/>
<path d="M38.0107 19.7057C37.6964 19.6346 37.3839 19.8318 37.3129 20.1462C35.5358 28.008 30.1235 34.8261 22.4636 38.8522L20.6835 39.7878C20.5686 39.8482 20.4313 39.8482 20.3164 39.7878L18.5364 38.8522C10.8644 34.8198 5.44937 27.9899 3.67972 20.1139C3.60917 19.7995 3.29687 19.6018 2.98256 19.6725C2.66817 19.7432 2.47054 20.0553 2.54117 20.3697C4.38585 28.5802 10.018 35.6933 17.9934 39.8851L19.7735 40.8208C20.001 40.9402 20.2504 41.0001 20.5 41.0001C20.7494 41.0001 20.999 40.9402 21.2264 40.8207L23.0065 39.8851C30.9694 35.6998 36.5987 28.599 38.4512 20.4034C38.5222 20.0891 38.325 19.7767 38.0107 19.7057Z" fill="#292929"/>
<path d="M37.7269 6.67667C34.6112 6.34795 32.1612 4.16094 31.7691 1.35837C31.6608 0.58393 30.9952 0 30.221 0H10.7793C10.0052 0 9.3397 0.58393 9.23136 1.35837C8.83913 4.16102 6.38922 6.34795 3.27354 6.67667C2.48405 6.75995 1.88867 7.42693 1.88867 8.22803V14.4937C1.88867 15.4041 1.93584 16.3246 2.02889 17.2297C2.0598 17.53 2.31317 17.7536 2.60865 17.7536C2.62859 17.7536 2.64877 17.7525 2.66903 17.7504C2.98959 17.7175 3.22277 17.4309 3.18978 17.1104C3.10081 16.2448 3.05565 15.3644 3.05565 14.4937V8.22803C3.05565 8.02903 3.20516 7.85726 3.39598 7.83717C7.04562 7.45215 9.92043 4.85442 10.3871 1.52004C10.4158 1.31544 10.5807 1.16698 10.7793 1.16698H30.221C30.4196 1.16698 30.5847 1.31544 30.6133 1.52004C31.0798 4.85442 33.9547 7.45207 37.6043 7.83717C37.7951 7.85726 37.9447 8.02903 37.9447 8.22803V14.4937C37.9447 15.3552 37.9004 16.2265 37.8133 17.0834C37.7807 17.4039 38.0142 17.6903 38.3348 17.7229C38.6552 17.7557 38.9417 17.522 38.9744 17.2014C39.0655 16.3055 39.1116 15.3945 39.1116 14.4937V8.22803C39.1117 7.42693 38.5164 6.75995 37.7269 6.67667Z" fill="#292929"/>
<path d="M27.1833 14.5633H26.2239V11.7781C26.2239 8.63427 23.6663 6.07666 20.5224 6.07666C17.3786 6.07666 14.8209 8.63427 14.8209 11.7781V14.5633H13.8616C12.8384 14.5633 12.0059 15.3958 12.0059 16.4191V24.7735C12.0059 25.7968 12.8384 26.6293 13.8616 26.6293H27.1833C28.2065 26.6293 29.039 25.7968 29.039 24.7735V16.4191C29.039 15.3958 28.2065 14.5633 27.1833 14.5633ZM15.988 11.7781C15.988 9.27786 18.0221 7.24372 20.5225 7.24372C23.0228 7.24372 25.057 9.27786 25.057 11.7781V14.5634H15.988V11.7781ZM27.8721 24.7735C27.8721 25.1533 27.563 25.4623 27.1833 25.4623H13.8616C13.4818 25.4623 13.1728 25.1533 13.1728 24.7735V16.4191C13.1728 16.0393 13.4819 15.7303 13.8616 15.7303H27.1833C27.563 15.7303 27.8721 16.0393 27.8721 16.4191V24.7735Z" fill="#292929"/>
</svg>
