<svg width="49" height="50" viewBox="0 0 49 50" fill="none" xmlns="http://www.w3.org/2000/svg">
<path d="M48.7647 22.4105C48.7647 16.5419 46.49 11.0352 42.3598 6.90484C38.2295 2.77467 32.7228 0.5 26.8541 0.5C21.0017 0.5 15.4995 2.77917 11.3612 6.91747C7.2237 11.055 4.94472 16.5564 4.94386 22.4076L4.93716 25.8461C4.93352 27.6962 3.4819 29.1848 1.63253 29.2349L0.23584 29.2727V30.6699C0.23584 33.5553 2.14674 36.9368 5.22274 39.4948C6.32074 40.408 7.77849 41.3933 9.64212 42.2345C9.62403 42.434 9.61341 42.6355 9.61341 42.8395C9.61341 46.5121 12.6014 49.5001 16.274 49.5001C19.4373 49.5001 22.0908 47.2827 22.7664 44.3209H26.5397C27.2151 47.2826 29.8686 49.5 33.032 49.5C36.7046 49.5 39.6924 46.5121 39.6924 42.8394C39.6924 42.0078 39.5379 41.2118 39.2581 40.4771C40.3526 39.7223 41.387 38.8636 42.3472 37.9034C46.4855 33.7651 48.7647 28.263 48.7647 22.4105ZM36.8213 42.8394C36.8213 44.9289 35.1214 46.6289 33.032 46.6289C31.4086 46.6289 30.021 45.6026 29.4823 44.1649C32.0248 43.8629 34.468 43.1242 36.7228 41.9844C36.7866 42.2595 36.8213 42.5454 36.8213 42.8394ZM26.8542 41.4497H22.7873C22.1462 38.4422 19.4698 36.1791 16.2738 36.1791C13.8258 36.1791 11.6835 37.5074 10.526 39.4803C9.07613 38.794 7.93248 38.0141 7.05842 37.2873C5.42515 35.9291 3.77954 33.8501 3.26829 31.8665C4.30695 31.5701 5.25566 31.0072 6.0277 30.2154C7.17259 29.0414 7.8049 27.4917 7.80816 25.8518L7.81486 22.4132V22.4105C7.81495 11.9121 16.3559 3.37109 26.8541 3.37109C31.956 3.37109 36.7416 5.34708 40.3296 8.93508C43.9175 12.5231 45.8936 17.3088 45.8936 22.4106C45.8935 32.9088 37.3525 41.4497 26.8542 41.4497ZM16.2738 46.6289C14.1843 46.6289 12.4843 44.9289 12.4843 42.8394C12.4843 40.75 14.1843 39.0501 16.2738 39.0501C18.3633 39.0501 20.0631 40.75 20.0631 42.8394C20.0631 44.9289 18.3633 46.6289 16.2738 46.6289Z" fill="#292929"/>
<path d="M29.3484 29.2343C26.4482 29.2343 23.8183 27.409 22.804 24.6922L20.1143 25.6963C21.5454 29.5298 25.2563 32.1054 29.3484 32.1054C33.4404 32.1054 37.1513 29.5298 38.5826 25.6963L35.8928 24.6922C34.8785 27.4089 32.2486 29.2343 29.3484 29.2343Z" fill="#292929"/>
<path d="M20.6777 15.5117H23.5488V20.3105H20.6777V15.5117Z" fill="#292929"/>
<path d="M35.1479 15.5117H38.019V20.3105H35.1479V15.5117Z" fill="#292929"/>
</svg>
