<svg width="33" height="33" viewBox="0 0 33 33" fill="none" xmlns="http://www.w3.org/2000/svg">
<g clip-path="url(#clip0_2_6635)">
<path d="M2.71788 31.4061L2.71778 31.4061C2.49745 31.4763 2.25516 31.4172 2.09156 31.2524L2.09129 31.2521C1.92889 31.0872 1.872 30.8435 1.94718 30.6238C1.94721 30.6237 1.94725 30.6236 1.94728 30.6235L3.70994 25.3652C1.89154 22.7585 0.93125 19.7004 0.93125 16.5C0.93125 12.2696 2.60458 8.30954 5.64232 5.35068C5.88511 5.11407 6.27517 5.11924 6.51262 5.36161L6.51298 5.36198C6.74917 5.60555 6.74456 5.99571 6.50058 6.23239C3.70353 8.95882 2.1625 12.6042 2.1625 16.5C2.1625 19.5459 3.10665 22.4509 4.89161 24.9015L4.89174 24.9017C5.00866 25.0629 5.04068 25.2709 4.97672 25.4605L4.97675 25.4603L4.88194 25.4286L4.97668 25.4606L2.71788 31.4061ZM2.71788 31.4061L8.18837 29.6579C10.6745 31.2359 13.5432 32.0688 16.5041 32.0688C25.0857 32.0688 32.0688 25.0847 32.0688 16.5C32.0688 7.91529 25.0857 0.93125 16.4959 0.93125C14.0944 0.93125 11.7879 1.46683 9.64563 2.52132C9.33888 2.67162 9.21464 3.04226 9.36484 3.34635C9.51522 3.65081 9.88344 3.77475 10.1883 3.62603L10.1886 3.62588C12.1609 2.65506 14.2815 2.1625 16.501 2.1625H16.501H16.5011H16.5011H16.5011H16.5011H16.5011H16.5011H16.5011H16.5011H16.5012H16.5012H16.5012H16.5012H16.5012H16.5012H16.5012H16.5012H16.5012H16.5013H16.5013H16.5013H16.5013H16.5013H16.5013H16.5013H16.5013H16.5014H16.5014H16.5014H16.5014H16.5014H16.5014H16.5014H16.5014H16.5015H16.5015H16.5015H16.5015H16.5015H16.5015H16.5015H16.5015H16.5016H16.5016H16.5016H16.5016H16.5016H16.5016H16.5016H16.5016H16.5016H16.5017H16.5017H16.5017H16.5017H16.5017H16.5017H16.5017H16.5017H16.5018H16.5018H16.5018H16.5018H16.5018H16.5018H16.5018H16.5018H16.5019H16.5019H16.5019H16.5019H16.5019H16.5019H16.5019H16.5019H16.5019H16.502H16.502H16.502H16.502H16.502H16.502H16.502H16.502H16.5021H16.5021H16.5021H16.5021H16.5021H16.5021H16.5021H16.5021H16.5022H16.5022H16.5022H16.5022H16.5022H16.5022H16.5022H16.5022H16.5023H16.5023H16.5023H16.5023H16.5023H16.5023H16.5023H16.5023H16.5023H16.5024H16.5024H16.5024H16.5024H16.5024H16.5024H16.5024H16.5024H16.5025H16.5025H16.5025H16.5025H16.5025H16.5025H16.5025H16.5025H16.5026H16.5026H16.5026H16.5026H16.5026H16.5026H16.5026H16.5026H16.5027H16.5027H16.5027H16.5027H16.5027H16.5027H16.5027H16.5027H16.5027H16.5028H16.5028H16.5028H16.5028H16.5028H16.5028H16.5028H16.5028H16.5029H16.5029H16.5029H16.5029H16.5029H16.5029H16.5029H16.5029H16.503H16.503H16.503H16.503H16.503H16.503H16.503H16.503H16.503H16.5031H16.5031H16.5031H16.5031H16.5031H16.5031H16.5031H16.5031H16.5032H16.5032H16.5032H16.5032H16.5032H16.5032H16.5032H16.5032H16.5033H16.5033H16.5033H16.5033H16.5033H16.5033H16.5033H16.5033H16.5034H16.5034H16.5034H16.5034H16.5034H16.5034H16.5034H16.5034H16.5034H16.5035H16.5035H16.5035H16.5035H16.5035H16.5035H16.5035H16.5035H16.5036H16.5036H16.5036H16.5036H16.5036H16.5036H16.5036H16.5036H16.5037H16.5037H16.5037H16.5037H16.5037H16.5037H16.5037H16.5037H16.5037H16.5038H16.5038H16.5038H16.5038H16.5038H16.5038H16.5038H16.5038H16.5039H16.5039H16.5039H16.5039H16.5039H16.5039H16.5039H16.5039H16.504H16.504H16.504H16.504H16.504H16.504H16.504H16.504H16.5041H16.5041H16.5041H16.5041H16.5041H16.5041H16.5041C24.4081 2.1625 30.8375 8.59498 30.8375 16.5C30.8375 24.406 24.4081 30.8375 16.5041 30.8375C13.6857 30.8375 10.9587 30.0182 8.61868 28.4699L8.61821 28.4695M2.71788 31.4061L8.61821 28.4695M8.61821 28.4695C8.46282 28.368 8.26855 28.3392 8.09031 28.3973M8.61821 28.4695L8.09031 28.3973M8.09031 28.3973C8.09023 28.3973 8.09015 28.3973 8.09007 28.3973L8.09031 28.3973ZM3.50084 29.8643L3.38272 29.9021L3.34331 30.0197L3.46143 29.9819L3.50084 29.8643Z" fill="#292929" stroke="#292929" stroke-width="0.2"/>
<path d="M12.724 8.77597L12.7238 8.77553C12.5401 8.33615 12.3454 8.05876 12.1007 7.89069C11.8556 7.72234 11.5742 7.67347 11.2411 7.66028C11.0812 7.651 10.9038 7.64161 10.7052 7.64161C9.90709 7.64161 9.18707 7.90097 8.70122 8.39965C8.20315 8.90398 7.03086 10.0946 7.03086 12.4328C7.03086 14.4277 8.20984 16.3286 8.92953 17.3121L9.00585 17.421C9.00592 17.4211 9.00599 17.4212 9.00606 17.4213C11.1865 20.5827 13.8919 22.9532 16.6296 24.0865C18.7109 24.9492 20.1818 25.3584 21.2456 25.3584C21.664 25.3584 21.976 25.3001 22.2344 25.246L22.235 25.2458C22.8906 25.1048 23.6236 24.7929 24.248 24.3617C24.8713 23.9313 25.3969 23.3748 25.6216 22.7394L25.6216 22.7394C25.8036 22.2242 25.9185 21.6928 25.9579 21.2362C25.9775 21.0079 25.9785 20.7964 25.9587 20.6138C25.9391 20.4327 25.8984 20.273 25.8295 20.1534C25.6506 19.839 25.3397 19.6897 24.991 19.5224L24.9783 19.5163L24.9776 19.516L24.736 19.3977L24.7353 19.3974L24.7333 19.3964L24.7268 19.3932L24.7035 19.3816L24.6185 19.3395C24.5461 19.3036 24.4435 19.2528 24.3196 19.1917C24.0718 19.0694 23.7387 18.9058 23.3914 18.7373C22.7018 18.4028 21.9454 18.0437 21.6973 17.957C21.4961 17.8814 21.2968 17.8427 21.1033 17.8427C20.7691 17.8427 20.2922 17.9607 19.9101 18.5005C19.91 18.5005 19.91 18.5006 19.91 18.5006L19.705 18.788C19.3611 19.2697 19.0417 19.7158 18.7915 19.9853C18.6985 20.0834 18.5706 20.0656 18.4231 20.0046L18.4227 20.0044L18.2814 19.9467L18.2812 19.9466L18.2773 19.945C17.7113 19.7154 16.5404 19.2402 15.0895 17.9495C13.9707 16.9542 13.1655 15.7272 12.786 15.0863C12.7697 15.058 12.7633 15.046 12.7604 15.0386C12.7639 15.0308 12.773 15.0153 12.7965 14.9851C12.8217 14.9527 12.8573 14.9111 12.9077 14.852L12.9077 14.8521L12.9099 14.8493C13.0063 14.728 13.1024 14.6254 13.2002 14.5209C13.2164 14.5037 13.2326 14.4864 13.2489 14.4689C13.3475 14.3651 13.4444 14.2609 13.5898 14.0937L13.5899 14.0935L13.5938 14.089C13.7975 13.8536 13.9538 13.6729 14.1115 13.3368C14.4201 12.7332 14.1405 12.1569 14.0561 11.9831L14.0561 11.983C13.9864 11.8368 13.5648 10.8146 13.1877 9.90005C13.1575 9.82701 13.1277 9.75465 13.0983 9.68348L13.0073 9.72102L13.0983 9.68347L12.724 8.77597ZM9.61626 9.22357L9.61651 9.22331C9.81927 9.01598 10.2315 8.87286 10.7041 8.87286C10.8752 8.87286 11.0295 8.88095 11.1767 8.89118L11.1767 8.89123L11.1799 8.89135C11.2634 8.89454 11.3166 8.89676 11.3569 8.90356C11.3937 8.90977 11.4106 8.91845 11.4234 8.92942C11.439 8.94264 11.4578 8.96698 11.4849 9.02083C11.5119 9.07448 11.5422 9.14709 11.5853 9.25049C11.5853 9.25054 11.5853 9.25058 11.5853 9.25063L11.9585 10.1546C12.3607 11.1341 12.8635 12.3487 12.9434 12.5169L12.9436 12.5174C12.9949 12.6239 13.0122 12.6884 13.0161 12.7279C13.0195 12.7624 13.013 12.7789 13.0055 12.7937L13.0054 12.7937L13.004 12.7966C12.9105 12.9961 12.8429 13.0755 12.6107 13.3427L12.6104 13.3431C12.5234 13.4442 12.4383 13.5344 12.3515 13.6264L12.3514 13.6265C12.3461 13.6321 12.3408 13.6378 12.3355 13.6435C12.2093 13.7775 12.0802 13.9146 11.9482 14.0787L11.9467 14.0804C11.8408 14.2044 11.6663 14.4085 11.5775 14.682C11.4862 14.9632 11.4876 15.3101 11.7201 15.7108L11.7201 15.7108L11.7205 15.7115C12.1374 16.4157 13.0232 17.7631 14.2676 18.8723L14.2677 18.8723C15.8792 20.3062 17.2368 20.8559 17.8161 21.0899C17.8162 21.0899 17.8163 21.09 17.8163 21.09L17.9463 21.1432C17.9464 21.1433 17.9465 21.1433 17.9466 21.1434C18.5539 21.3962 19.267 21.2776 19.6882 20.8274L19.6884 20.8272C19.9959 20.4967 20.3401 20.0142 20.6992 19.5109L20.703 19.5055L20.7031 19.5054L20.9093 19.2167L20.9095 19.2164C20.9681 19.1337 21.0129 19.101 21.04 19.0875C21.0649 19.075 21.0816 19.075 21.1002 19.075C21.1397 19.075 21.1931 19.0845 21.2729 19.1149L21.2729 19.1149L21.2754 19.1158C21.4322 19.1707 21.9743 19.424 22.5759 19.7133C23.1738 20.0008 23.8212 20.3192 24.1821 20.4999L24.1829 20.5003L24.4397 20.6261L24.4402 20.6264C24.5146 20.6623 24.601 20.7035 24.6695 20.7318C24.6913 20.7408 24.7134 20.7493 24.7339 20.7561C24.7363 20.7838 24.7381 20.8195 24.7385 20.8632C24.7393 20.9553 24.734 21.0766 24.7179 21.2216C24.6857 21.5118 24.6105 21.895 24.4565 22.3292L24.4565 22.3293C24.3223 22.7089 23.9556 23.084 23.4851 23.3944C23.0174 23.7028 22.4622 23.9372 21.9735 24.0427C21.7656 24.0865 21.5436 24.1282 21.2445 24.1282C20.364 24.1282 19.0511 23.7594 17.0991 22.9499L17.099 22.9499C14.588 21.9105 12.0712 19.7015 10.0182 16.7238L10.0177 16.723L9.89804 16.5528L9.89806 16.5528L9.89692 16.5513C8.85205 15.1243 8.26108 13.6217 8.26108 12.4328C8.26108 10.5993 9.14432 9.70267 9.61444 9.22541L9.61626 9.22357ZM24.7478 20.655L24.7211 20.6578C24.7214 20.6536 24.7219 20.6495 24.7228 20.6455C24.7315 20.649 24.7399 20.6522 24.7478 20.655Z" fill="#292929" stroke="#292929" stroke-width="0.2"/>
<path d="M7.73438 4.64062C8.01915 4.64062 8.25 4.40977 8.25 4.125C8.25 3.84023 8.01915 3.60938 7.73438 3.60938C7.4496 3.60938 7.21875 3.84023 7.21875 4.125C7.21875 4.40977 7.4496 4.64062 7.73438 4.64062Z" fill="#292929"/>
</g>
<defs>
<clipPath id="clip0_2_6635">
<rect width="33" height="33" fill="white"/>
</clipPath>
</defs>
</svg>
